<svg width="80" height="53" viewBox="0 0 80 53" fill="none" xmlns="http://www.w3.org/2000/svg">
<path fill-rule="evenodd" clip-rule="evenodd" d="M59.8334 50C60.4928 45.8164 61.1519 41.6324 62.229 37.5383C63.3057 33.4445 64.8005 29.4406 66.5142 25.6617C68.2285 21.8828 70.1624 18.3288 71.9867 15.5169C73.8111 12.7051 75.5249 10.6356 76.3822 9.60113C77.2394 8.5661 77.2394 8.5661 76.1625 8.61103C75.0856 8.65597 72.9318 8.74611 69.8548 9.17352C66.7782 9.60085 62.7782 10.3657 59.328 11.2653C55.8775 12.165 52.9766 13.2 49.5043 14.5943C46.0317 15.9888 41.9878 17.7435 38.2739 19.6779C34.5597 21.6126 31.1749 23.7267 27.3074 26.4036C23.4391 29.0805 19.0879 32.3194 15.9671 34.7713C12.8464 37.2229 10.9564 38.8876 10.0114 39.7198C9.06645 40.5521 9.06645 40.5521 8.95656 40.3947C8.84638 40.2373 8.62681 39.9227 8.51692 39.765C8.407 39.6075 8.407 39.6075 9.33017 38.7079C10.253 37.8083 12.0994 36.0087 14.0333 34.2091C15.9671 32.4095 17.9891 30.6102 19.8351 29.1032C21.6815 27.5961 23.3514 26.3813 25.2852 25.0317C27.2194 23.6821 29.4169 22.1977 30.8455 21.2302C32.2743 20.263 32.9332 19.813 33.2631 19.5883C33.5929 19.3633 33.5929 19.3633 33.5929 18.7559C33.5929 18.1485 33.5929 16.9337 33.5929 16.3263C33.5929 15.7192 33.5929 15.7192 34.8676 15.7192C36.1423 15.7192 38.6914 15.7192 39.9661 15.7192C41.2408 15.7192 41.2408 15.7192 41.1748 15.2695C41.1091 14.8196 40.9771 13.9196 40.4276 13.2447C39.8783 12.5697 38.9112 12.12 37.8781 11.7829C36.8454 11.4454 35.7463 11.2201 34.6696 11.3329C33.5929 11.4454 32.5374 11.8951 28.8456 15.1115C25.1535 18.3283 18.8242 24.3118 15.6592 27.3036C12.4945 30.2951 12.4945 30.2951 12.3407 30.2275C12.1867 30.1602 11.879 30.0254 11.7252 29.9576C11.5714 29.8903 11.5714 29.8903 12.2305 29.0356C12.89 28.1806 14.2086 26.4712 17.5931 22.9845C20.9776 19.4978 26.4279 14.2342 29.2193 11.5576C32.01 8.88069 32.142 8.79083 32.5596 8.63336C32.9771 8.47596 33.6804 8.25067 34.2738 8.13849C34.8673 8.02595 35.3505 8.02595 35.944 8.09348C36.5375 8.16081 37.2405 8.29588 37.9657 8.56582C38.6911 8.83604 39.4384 9.24077 40.1636 9.73564C40.8888 10.2303 41.592 10.8151 41.9878 11.1752C42.3835 11.535 42.4713 11.6701 42.5812 11.7602C42.6911 11.8504 42.8231 11.8954 44.0757 11.9177C45.3283 11.94 47.7018 11.94 48.8885 11.9177C50.0751 11.8954 50.0751 11.8504 49.2842 11.1079C48.4931 10.3657 46.9107 8.9259 45.4162 7.71108C43.9217 6.4966 42.515 5.50678 41.0646 4.74195C39.614 3.97712 38.1197 3.43727 36.757 3.16735C35.3945 2.89743 34.1634 2.89742 32.6473 3.5947C31.131 4.29198 29.3289 5.68682 25.0654 10.0957C20.8016 14.5047 14.0769 21.9272 10.6703 25.8414C7.26374 29.7552 7.17565 30.1602 7.13174 30.9926C7.08812 31.825 7.08812 33.0847 7.08812 33.782C7.08812 34.4793 7.08812 34.6144 6.40657 35.0867C5.72531 35.559 4.3628 36.3691 3.68154 36.7735C3 37.1785 3 37.1785 3 38.843C3 40.5075 3 43.8367 3.02209 45.5015C3.04391 47.166 3.08781 47.166 3.11019 47.166H3.132L59.8334 50Z" fill="#274DA7"/>
</svg>
